<?xml version="1.0" encoding="UTF-8" standalone="no"?>
<!-- Created with Inkscape (http://www.inkscape.org/) -->

<svg
   xmlns:osb="http://www.openswatchbook.org/uri/2009/osb"
   xmlns:dc="http://purl.org/dc/elements/1.1/"
   xmlns:cc="http://creativecommons.org/ns#"
   xmlns:rdf="http://www.w3.org/1999/02/22-rdf-syntax-ns#"
   xmlns:svg="http://www.w3.org/2000/svg"
   xmlns="http://www.w3.org/2000/svg"
   xmlns:sodipodi="http://sodipodi.sourceforge.net/DTD/sodipodi-0.dtd"
   xmlns:inkscape="http://www.inkscape.org/namespaces/inkscape"
   width="1920px"
   height="1080px"
   id="svg2985"
   version="1.1"
   inkscape:version="0.48.5 r10040"
   sodipodi:docname="acodlogo.svg"
   inkscape:export-filename="/home/andrew/acodlogo.png"
   inkscape:export-xdpi="190.89999"
   inkscape:export-ydpi="190.89999">
  <defs
     id="defs2987">
    <linearGradient
       id="linearGradient3788"
       osb:paint="solid">
      <stop
         style="stop-color:#ff0000;stop-opacity:1;"
         offset="0"
         id="stop3790" />
    </linearGradient>
  </defs>
  <sodipodi:namedview
     id="base"
     pagecolor="#ffffff"
     bordercolor="#666666"
     borderopacity="1.0"
     inkscape:pageopacity="0.0"
     inkscape:pageshadow="2"
     inkscape:zoom="0.42426407"
     inkscape:cx="145.52308"
     inkscape:cy="336.11657"
     inkscape:document-units="px"
     inkscape:current-layer="layer1"
     showgrid="false"
     inkscape:window-width="1920"
     inkscape:window-height="1014"
     inkscape:window-x="0"
     inkscape:window-y="27"
     inkscape:window-maximized="1" />
  <metadata
     id="metadata2990">
    <rdf:RDF>
      <cc:Work
         rdf:about="">
        <dc:format>image/svg+xml</dc:format>
        <dc:type
           rdf:resource="http://purl.org/dc/dcmitype/StillImage" />
        <dc:title></dc:title>
      </cc:Work>
    </rdf:RDF>
  </metadata>
  <g
     id="layer1"
     inkscape:label="Layer 1"
     inkscape:groupmode="layer">
    <path
       style="fill:none;stroke:#000000;stroke-width:1px;stroke-linecap:butt;stroke-linejoin:miter;stroke-opacity:1"
       d="M 158.0152,806.9123 426.43229,256.7448 c 0,0 92.79241,-6.66667 103.33333,-6.66667 10.1941,0 -262.76143,551.34601 180.57191,561.34601"
       id="path2995"
       inkscape:connector-curvature="0"
       sodipodi:nodetypes="ccsc"
       inkscape:export-xdpi="190.89999"
       inkscape:export-ydpi="190.89999" />
    <path
       style="fill:none;stroke:#000000;stroke-width:1px;stroke-linecap:butt;stroke-linejoin:miter;stroke-opacity:1"
       d="M 149.58333,812.08333 718.75,816.66667"
       id="path2997"
       inkscape:connector-curvature="0" />
    <path
       sodipodi:type="arc"
       style="fill:#000000;fill-opacity:0;stroke:#4d0000;stroke-width:3.50000000000000000;stroke-miterlimit:4;stroke-opacity:1;stroke-dasharray:none"
       id="path3018"
       sodipodi:cx="759.55054"
       sodipodi:cy="523.74268"
       sodipodi:rx="60.693333"
       sodipodi:ry="67.175148"
       d="m 820.24387,523.74268 a 60.693333,67.175148 0 1 1 -0.009,-1.14472"
       sodipodi:start="0"
       sodipodi:end="6.2661437"
       sodipodi:open="true" />
    <path
       style="fill:none;stroke:#000000;stroke-width:1px;stroke-linecap:butt;stroke-linejoin:miter;stroke-opacity:1"
       d="M 426.62109,329.2883 319.37656,613.30952 377.12362,610.9525 z"
       id="path5246"
       inkscape:connector-curvature="0" />
    <path
       style="fill:#000000;fill-opacity:1;stroke:#0000ff;stroke-width:4.30000019;stroke-miterlimit:4;stroke-opacity:1;stroke-dasharray:none"
       d="m 487.39563,813.1375 c -91.39355,-0.85096 -203.97194,-1.70147 -250.17421,-1.89003 L 153.21731,810.90464 289.8808,531.00821 c 75.16491,-153.94304 137.36194,-280.59673 138.21563,-281.45265 1.33731,-1.34081 569.3742,-10.93664 585.53747,-0.79571 4.708,2.95384 -301.28815,3.54869 -380.9598,11.9346 -12.04483,1.26779 -100.1509,44.95368 -126.01313,96.85863 -51.57869,103.51733 -46.21435,124.23493 -46.00425,203.50717 0.15627,58.95186 9.17662,100.30632 31.08833,142.52635 8.68358,16.73177 15.64021,25.87926 33.36295,43.86996 36.12009,36.66625 72.30362,54.15812 135.5288,65.51752 5.38618,0.96771 352.5053,-8.4168 353.8416,-8.00476 1.4451,0.44558 -343.2832,10.64426 -347.94291,10.54374 -5.18545,-0.11196 -87.7463,-1.52461 -179.13986,-2.37556 z M 378.31272,611.88291 c 1.35824,-1.04303 49.95811,-282.79579 48.95312,-283.80077 -0.63404,-0.63405 -1.50248,-0.71086 -1.92986,-0.17072 -1.16585,1.47348 -107.64597,284.55872 -107.64597,286.18476 0,1.16783 59.02601,-0.98715 60.62271,-2.21327 z"
       id="path5264"
       inkscape:connector-curvature="0"
       sodipodi:nodetypes="cscssssssssssccsssss" />
    <path
       style="fill:#000000;fill-opacity:1;stroke:#0000ff;stroke-width:5.35;stroke-miterlimit:4;stroke-opacity:1;stroke-dasharray:none"
       d="m 738.22806,582.51546 c -39.71879,-18.03924 -48.32402,-73.27821 -16.38971,-105.20938 28.46712,-28.46432 68.40561,-21.08032 87.91498,16.2541 8.30228,15.88778 8.95406,41.81536 1.45986,58.07198 -13.45926,29.19614 -46.19793,43.04935 -72.98513,30.8833 z"
       id="path5266"
       inkscape:connector-curvature="0" />
    <path
       style="fill:none;stroke:#000000;stroke-width:1px;stroke-linecap:butt;stroke-linejoin:miter;stroke-opacity:1"
       d="m 997.02056,247.97102 16.49914,556.25734 c 0,0 405.5513,65.45859 355.9104,-334.69721 -34.3942,-277.25209 -354.147,-229.49553 -372.40954,-221.56013 z"
       id="path5268"
       inkscape:connector-curvature="0"
       sodipodi:nodetypes="ccsc" />
    <path
       style="fill:none;stroke:#000000;stroke-width:1px;stroke-linecap:butt;stroke-linejoin:miter;stroke-opacity:1"
       d="m 755.42575,456.56752 246.30885,-8.24958"
       id="path5274"
       inkscape:connector-curvature="0" />
    <path
       style="fill:none;stroke:#000000;stroke-width:1px;stroke-linecap:butt;stroke-linejoin:miter;stroke-opacity:1"
       d="m 758.96128,586.20376 248.66592,-1.17851"
       id="path5276"
       inkscape:connector-curvature="0" />
    <path
       style="fill:#000000;fill-opacity:1;stroke:#0000ff;stroke-width:6.30503559;stroke-miterlimit:4;stroke-opacity:1;stroke-dasharray:none"
       d="m 800.98306,575.35827 c 5.09875,-5.19848 10.62073,-12.27436 12.81706,-16.42379 11.07934,-20.93173 10.17848,-47.77976 -0.69798,-69.32591 -5.06383,-10.03139 -16.16403,-22.99296 -25.52187,-27.84477 -4.14985,-2.1516 -32.63934,-2.38805 -32.34132,-2.68607 0.67502,-0.67502 245.41335,-9.89652 246.17235,-9.27022 0.3035,0.25041 1.1796,22.56926 1.9471,49.59746 0.7674,27.02819 1.7034,57.2297 2.0799,67.11447 l 0.6845,17.97229 -107.04896,0 -145.174,4.58333 47.08322,-13.71679 z"
       id="path5278"
       inkscape:connector-curvature="0"
       sodipodi:nodetypes="csssscssccccc" />
    <path
       style="fill:#000000;fill-opacity:1;stroke:#0000ff;stroke-width:6.33514357;stroke-miterlimit:4;stroke-opacity:1;stroke-dasharray:none"
       d="m 1049.2199,807.31947 c -2.935,-0.20167 -12.14,-0.97323 -20.4557,-1.71455 l -15.1194,-1.34788 0,-3.76744 c 0,-2.07208 -1.3753,-48.1653 -3.0562,-102.42936 -1.6809,-54.26406 -2.7376,-102.76247 -2.3483,-107.77423 0.7996,-10.29181 -2.2709,-112.79669 -4.0836,-136.32806 -0.6512,-8.45445 -2.2265,-51.02236 -3.5007,-94.59535 -1.27417,-43.57298 -2.62572,-85.96649 -3.00343,-94.2078 -0.68061,-14.8456 -0.66189,-14.99182 2.01986,-15.80722 1.48867,-0.45265 3.50727,-1.5052 4.48557,-2.33899 0.9783,-0.8338 8.7159,-2.50019 17.1947,-3.70308 21.4783,-3.04719 86.2646,-3.06052 109.0971,-0.0225 127.0923,16.91076 206.7228,81.9749 232.515,189.98217 3.7742,15.80507 6.0726,30.09093 8.2385,51.20785 10.0878,98.35463 -8.5319,176.22095 -55.4739,231.98697 -27.6747,32.87693 -72.1172,60.47215 -120.6514,74.91482 -42.1077,12.53029 -101.3302,19.00424 -145.8581,15.9446 z"
       id="path5280"
       inkscape:connector-curvature="0" />
    <path
       style="fill:none;stroke:#0000ff;stroke-width:8.91666698;stroke-miterlimit:4;stroke-opacity:1;stroke-dasharray:none"
       d="m 783.6384,583.08409 c 9.97143,-3.30856 34.90422,-20.83996 39.31782,-37.40309 6.89662,-25.88127 -0.87623,-56.33571 -19.37476,-75.91142 l -7.53175,-7.97032 15,-0.96964 c 15.19334,-0.98214 83.70275,-3.61048 149.16667,-5.72272 19.70833,-0.63591 36.28993,-0.51896 36.848,0.25987 0.55806,0.77884 1.50396,18.04316 2.102,38.36515 0.59803,20.322 1.55312,47.89408 2.12242,61.27129 l 1.0352,24.32222 -71.47049,1.09183 c -39.30876,0.6005 -100.59547,3.534 -119.38713,3.97259 -28.99978,0.67685 -33.2081,0.47938 -27.82798,-1.30576 z"
       id="path5294"
       inkscape:connector-curvature="0"
       sodipodi:nodetypes="ssscsscsscsss" />
    <path
       style="fill:none;stroke:none;stroke-width:8.91666698000000046;stroke-miterlimit:4;stroke-opacity:1;stroke-dasharray:none"
       d="m 815.02295,573.19154 c 1.95518,-2.08119 6.00961,-9.01869 9.00986,-15.41667 5.2222,-11.13624 5.45356,-12.48621 5.42112,-31.63269 -0.0302,-17.79237 -0.53435,-21.26813 -4.56784,-31.48873 -2.49368,-6.3188 -7.16441,-15.15012 -10.37941,-19.62517 -3.89644,-5.42356 -5.14172,-8.34467 -3.73483,-8.76095 2.61625,-0.77413 150.67344,-6.05449 168.20509,-5.99893 l 12.76111,0.0405 1.02792,15.41667 c 1.54313,23.14374 4.13968,96.94904 3.43555,97.65317 -0.63397,0.63397 -129.54936,3.38769 -164.85957,3.52151 l -19.87386,0.0753 3.55486,-3.78398 z"
       id="path5298"
       inkscape:connector-curvature="0" />
    <path
       style="fill:none;stroke:#0000ff;stroke-width:8.91666698;stroke-miterlimit:4;stroke-opacity:1;stroke-dasharray:none"
       d="m 642.09644,806.1209 c -35.71421,-8.42615 -63.02513,-19.82297 -85.0473,-35.49015 -13.64561,-9.70785 -39.76942,-34.84053 -49.05713,-47.19592 -15.242,-20.27635 -30.42103,-56.13363 -37.3701,-88.27903 -9.92656,-45.91887 -9.0153,-117.65997 2.33418,-183.76377 3.05851,-17.81398 12.56322,-42.65378 30.38795,-79.41651 l 12.52551,-25.83334 19.33979,-19.20393 c 30.98551,-30.76784 79.15039,-60.34816 103.17536,-63.36484 24.69395,-3.10068 131.47909,-6.51234 290.58334,-9.28378 l 64.41888,-1.12211 0.9306,12.32066 c 1.63457,21.6409 6.27968,178.4948 5.3146,179.4599 -0.51062,0.51062 -18.73817,1.53449 -40.50568,2.27529 -21.76752,0.74078 -69.9523,2.50665 -107.0773,3.92415 -37.125,1.41748 -76.47974,2.91305 -87.45497,3.32345 -17.98195,0.67243 -20.94817,1.2384 -30,5.72415 -13.92423,6.90033 -23.59995,16.89616 -30.61993,31.63298 -4.91647,10.32097 -6.00597,14.67175 -6.62435,26.45347 -0.41992,8.0002 0.15066,18.15905 1.31871,23.48075 5.47442,24.94093 25.80327,45.67478 49.03864,50.01563 4.36835,0.81608 22.46273,0.82493 41.463,0.0203 18.54173,-0.78525 74.66651,-1.93035 124.72173,-2.54465 l 91.00953,-1.1169 1.1111,49.00275 c 0.6111,26.95152 1.9121,74.74749 2.8911,106.21325 0.979,31.46577 1.4641,57.52639 1.078,57.9125 -0.6919,0.69192 -152.08316,4.64665 -247.93256,6.47665 -27.04167,0.5163 -61.16667,1.28929 -75.83334,1.71774 -24.16043,0.70581 -28.30693,0.39203 -44.11936,-3.33865 l 0,-7e-5 z"
       id="path5302"
       inkscape:connector-curvature="0"
       inkscape:export-xdpi="90"
       inkscape:export-ydpi="90" />
    <path
       style="fill:none;stroke:none"
       d="m 813.1485,574.6493 c 8.71234,-10.56775 14.04923,-22.87415 16.21737,-37.39583 0.80744,-5.40807 0.70213,-17.63805 -0.20273,-23.54167 -1.50812,-9.8396 -3.94312,-17.71395 -8.18174,-26.45833 -3.3406,-6.89173 -6.59096,-11.95431 -11.17741,-17.4093 l -3.3459,-3.97953 3.40566,-0.24878 c 18.82078,-1.37484 149.8179,-6.06486 169.49463,-6.06833 l 13.58897,-0.002 0.26748,4.27083 c 0.38367,6.12606 1.34487,30.84756 2.57182,66.14583 0.58549,16.84375 1.19612,33.77393 1.35697,37.62262 0.28357,6.78498 0.26713,7.00238 -0.54088,7.15482 -0.45833,0.0865 -16.39583,0.36624 -35.41667,0.62171 -19.02083,0.25547 -59.70833,0.92403 -90.41666,1.48569 -30.70834,0.56166 -56.83454,1.02359 -58.05823,1.02651 l -2.22489,0.005 2.66221,-3.22917 z"
       id="path5304"
       inkscape:connector-curvature="0" />
    <path
       style="fill:#f2f2f2;fill-opacity:1;stroke:#0000ff;stroke-width:6.5;stroke-linecap:butt;stroke-linejoin:miter;stroke-miterlimit:4;stroke-opacity:1;stroke-dasharray:none"
       d="m 1117.2837,428.14046 3.4435,176.41061 c 0,0 23.5086,-1.07216 44.1739,-18.25699 19.429,-16.15677 35.9241,-45.5106 34.8787,-79.19336 -2.0589,-66.33742 -78.3821,-84.62138 -82.4957,-78.96026 z"
       id="path5357"
       inkscape:connector-curvature="0"
       sodipodi:nodetypes="ccsscc" />
    <path
       style="fill:#ffffff;fill-opacity:1;fill-rule:evenodd;stroke:#0000ff;stroke-width:15.321;stroke-miterlimit:4;stroke-opacity:1;stroke-dasharray:none"
       d="M 634.60527,797.96552 C 610.96986,791.77678 583.4537,780.58962 568.8236,771.22088 552.6112,760.83886 524.71986,734.99882 513.62023,720.0775 494.7967,694.77288 478.90435,653.54332 473.19029,615.18999 c -4.38781,-29.45142 -3.32591,-100.19387 2.06978,-137.88582 5.03659,-35.18339 8.30143,-46.41433 23.41112,-80.53346 19.18729,-43.3267 22.68686,-48.75279 43.89448,-68.05828 40.78261,-37.12481 76.51406,-57.03252 108.03321,-60.19052 19.77069,-1.98089 130.19287,-5.46893 263.53478,-8.3246 l 74.46739,-1.59481 1.56398,48.06825 c 0.8602,26.43754 2.23939,67.28368 3.06486,90.76922 l 1.50088,42.70097 -43.35545,1.6502 c -204.10088,7.76855 -206.54402,7.91045 -217.1758,12.61339 -15.64179,6.9191 -26.93796,18.26135 -34.98984,35.13257 -6.80482,14.25819 -7.24331,16.75136 -6.48724,36.88478 0.61968,16.50138 2.07028,24.14949 6.15189,32.43494 6.94779,14.10365 20.26773,27.44793 33.54738,33.60872 12.62884,5.85883 11.45504,5.83653 159.36455,3.0271 l 106.33156,-2.01969 1.4602,20.87587 c 0.80308,11.48172 2.16198,57.20348 3.01958,101.60389 l 1.5595,80.72802 -22.14138,0.0471 c -12.17772,0.0259 -77.82599,1.5957 -145.88501,3.48841 -167.33768,4.65361 -175.50537,4.5624 -201.52544,-2.25074 l 0,-3e-5 z"
       id="path5363"
       inkscape:connector-curvature="0" />
    <path
       style="fill:#ffffff;fill-opacity:1;fill-rule:evenodd;stroke:none"
       d="m 647.73079,791.7584 c -24.57303,-4.82023 -60.22916,-19.05596 -77.51152,-30.94653 -17.45497,-12.00934 -44.11843,-38.71836 -54.29068,-54.38346 -10.70616,-16.48733 -21.71275,-42.63767 -29.27685,-69.55833 -4.66731,-16.611 -5.0955,-23.62291 -5.06625,-82.96267 0.0256,-52.01005 0.85867,-69.23545 4.21578,-87.17301 5.00805,-26.75885 16.63301,-58.91727 32.58395,-90.1378 9.7002,-18.98607 14.8195,-25.82928 29.78973,-39.82141 37.11014,-34.68547 71.85409,-54.58486 102.19267,-58.53027 19.52486,-2.53912 129.25635,-6.3856 248.45461,-8.70922 l 80.36919,-1.56669 1.48728,25.70732 c 0.81801,14.13903 2.1918,50.78765 3.05286,81.44138 l 1.56559,55.73405 -22.13947,1.42382 c -12.17671,0.7831 -63.50521,3.05577 -114.06335,5.05038 -50.55813,1.99462 -97.6538,4.64007 -104.65706,5.87879 -22.3392,3.95133 -41.08969,18.4395 -52.29813,40.40987 -10.51881,20.61856 -10.50949,58.74929 0.0198,80.49966 6.83585,14.12097 22.74831,29.51527 37.63194,36.4065 l 12.6897,5.87542 123.11287,-1.73463 123.11286,-1.7346 1.36012,5.54226 c 0.74804,3.04824 2.11021,44.40326 3.02705,91.90007 l 1.66698,86.35782 -33.94212,1.40818 c -58.09304,2.41013 -230.18022,6.24048 -267.28738,5.94932 -19.44543,-0.1525 -40.05545,-1.19938 -45.80004,-2.32622 l -1.2e-4,0 z"
       id="path5367"
       inkscape:connector-curvature="0" />
    <path
       style="fill:#ffffff;fill-opacity:1;fill-rule:evenodd;stroke:none"
       d="m 644.03336,790.82127 c -22.5592,-4.98918 -54.12659,-17.36654 -69.29395,-27.16966 -19.56711,-12.64684 -47.53693,-39.86161 -58.81082,-57.2232 -10.73268,-16.52815 -21.7533,-42.73603 -29.24984,-69.55833 -4.5906,-16.42499 -5.08109,-24.064 -5.17557,-80.60565 -0.14835,-88.77649 4.33461,-112.10826 32.8621,-171.03226 13.753,-28.40708 16.33706,-32.12659 33.39636,-48.07099 37.53607,-35.08292 72.1441,-54.95482 102.60598,-58.91626 19.52486,-2.53912 129.25635,-6.3856 248.45461,-8.70922 l 80.36919,-1.56669 1.48728,25.70732 c 0.81801,14.13903 2.1918,50.78765 3.05286,81.44138 l 1.56559,55.73405 -22.13947,1.4217 c -12.17671,0.78193 -62.97488,3.05676 -112.88484,5.05517 -49.90995,1.9984 -96.94264,4.6079 -104.51707,5.79887 -24.40674,3.83762 -42.05308,17.98169 -54.81772,43.93804 -5.0658,10.30108 -5.97779,15.47683 -6.0814,34.51368 -0.082,15.06663 1.18944,26.34338 3.88535,34.46002 5.27645,15.88591 23.53078,35.80518 40.35633,44.03715 l 12.89337,6.30812 123.35397,-1.74177 123.354,-1.74177 1.36335,5.55525 c 0.74986,3.0554 2.1135,44.41627 3.03033,91.91308 l 1.66698,86.35782 -33.94211,1.40818 c -56.42328,2.34086 -229.56429,6.24055 -267.28738,6.02019 -19.87755,-0.1162 -41.54646,-1.57576 -49.49748,-3.33422 l 0,0 z"
       id="path5369"
       inkscape:connector-curvature="0" />
    <path
       style="fill:#ffffff;fill-opacity:1;fill-rule:evenodd;stroke:none"
       d="m 644.03336,790.82127 c -22.939,-5.07318 -54.21833,-17.42587 -70.07476,-27.67364 -19.55136,-12.63571 -46.60249,-39.11912 -58.19713,-56.97571 -10.57941,-16.29311 -21.62119,-42.60481 -29.08272,-69.30184 -4.5906,-16.42499 -5.08109,-24.064 -5.17557,-80.60565 -0.14835,-88.77649 4.33461,-112.10826 32.8621,-171.03226 13.753,-28.40708 16.33706,-32.12659 33.39636,-48.07099 38.25206,-35.75212 72.33265,-55.1177 103.86811,-59.0209 20.94325,-2.59218 126.72371,-6.28845 246.02627,-8.59686 l 81.56001,-1.57812 1.47955,24.53067 c 0.81376,13.49187 2.17845,50.14158 3.03266,81.44382 l 1.55311,56.91316 -22.13157,1.43399 c -12.17237,0.78869 -62.43665,3.07605 -111.69843,5.08303 -49.26177,2.00697 -96.46115,4.70115 -104.8875,5.98706 -20.83879,3.18012 -37.31004,14.19819 -49.56089,33.15263 -11.16096,17.26818 -12.41492,23.12768 -11.35275,53.04888 0.67035,18.88338 1.89168,25.26551 6.60112,34.49432 7.20819,14.12547 25.09225,31.08936 39.48993,37.45815 10.76467,4.76173 13.03413,4.81432 133.9512,3.10449 l 123.00099,-1.7393 1.37942,5.56764 c 0.75868,3.0622 2.12691,44.42952 3.04052,91.9274 l 1.66111,86.35975 -31.59219,1.39717 c -50.50989,2.23384 -231.00144,6.27534 -269.65147,6.03794 -19.83399,-0.12186 -41.56388,-1.59024 -49.49748,-3.34483 l 0,0 z"
       id="path5371"
       inkscape:connector-curvature="0" />
    <path
       style="fill:#ffffff;fill-opacity:1;fill-rule:evenodd;stroke:none"
       d="m 644.03336,790.82127 c -22.939,-5.07318 -54.21833,-17.42587 -70.07476,-27.67364 -19.55136,-12.63571 -46.60249,-39.11912 -58.19713,-56.97571 -10.57941,-16.29311 -21.62119,-42.60481 -29.08272,-69.30184 -4.5906,-16.42499 -5.08109,-24.064 -5.17557,-80.60565 -0.14835,-88.77649 4.33461,-112.10826 32.8621,-171.03226 13.753,-28.40708 16.33706,-32.12659 33.39636,-48.07099 37.51686,-35.06497 72.12642,-54.94225 102.60598,-58.92962 19.8636,-2.59858 129.26681,-6.45065 247.2884,-8.70699 l 81.56001,-1.55927 1.49694,24.53067 c 0.82333,13.49187 2.19441,50.14359 3.04685,81.44828 l 1.54994,56.91761 -19.78876,1.37826 c -10.88382,0.75805 -48.42657,2.4966 -83.42835,3.86345 -117.70219,4.59636 -139.67636,6.41885 -153.45575,12.72727 -14.69684,6.72844 -28.29758,20.15188 -36.3055,35.83225 -5.29255,10.36337 -5.87163,14.28675 -5.87163,39.78153 0,26.94728 0.3305,28.88096 6.99163,40.9071 7.65508,13.82059 22.38852,28.05743 36.08206,34.86585 8.27992,4.11678 15.92299,4.32007 133.98335,3.56382 l 125.20254,-0.802 1.36646,5.51605 c 1.57607,6.36212 5.18331,178.71758 3.74286,178.83536 -0.52578,0.0429 -57.17095,1.60132 -125.87816,3.46292 -153.70837,4.16471 -205.18186,4.17106 -223.91715,0.0276 l 0,-2e-5 z"
       id="path5373"
       inkscape:connector-curvature="0" />
    <path
       style="fill:#ffffff;fill-opacity:1;fill-rule:evenodd;stroke:none"
       d="m 653.46146,792.8197 c -52.62863,-10.68604 -86.05037,-28.63854 -119.48812,-64.18307 -19.7661,-21.01149 -32.29022,-43.71292 -43.02743,-77.99218 -9.67496,-30.88798 -11.51808,-51.63659 -9.95421,-112.05769 1.98462,-76.6769 6.56028,-97.66981 33.42554,-153.35459 13.72647,-28.45145 16.25845,-32.10168 33.3444,-48.07099 37.52973,-35.077 72.13827,-54.95067 102.60598,-58.92067 20.52511,-2.67445 128.64887,-6.51428 244.92777,-8.69818 l 83.91342,-1.57602 1.48806,22.17314 c 0.81843,12.19523 2.19064,48.84677 3.04938,81.44786 l 1.56134,59.27473 -19.78766,1.38474 c -10.88322,0.76161 -59.0321,3.04001 -106.99751,5.06312 -99.173,4.18297 -120.00205,6.16089 -132.53514,12.58549 -12.16646,6.23665 -25.79261,20.35388 -33.28048,34.47985 -5.75624,10.85923 -6.24703,14.00724 -6.24703,40.06938 0,26.94728 0.3305,28.88096 6.99163,40.9071 7.65508,13.82059 22.38852,28.05743 36.08206,34.86585 8.2814,4.11751 15.9013,4.31913 133.97857,3.54475 l 125.19773,-0.82107 1.37127,5.53512 c 0.7542,3.04431 2.11875,44.39699 3.03236,91.89487 l 1.66111,86.35975 -31.59219,1.44037 c -90.99034,4.14853 -296.95831,7.23974 -309.72085,4.64834 z"
       id="path5375"
       inkscape:connector-curvature="0" />
    <path
       style="fill:#ffffff;fill-opacity:1;fill-rule:evenodd;stroke:none"
       d="m 641.83878,790.43767 c -21.42521,-4.59243 -53.43407,-17.6196 -69.67688,-28.35756 -17.45948,-11.54226 -45.41091,-38.88231 -55.88581,-54.66343 -10.48499,-15.79629 -21.67757,-42.11313 -29.19967,-68.65646 -5.42137,-19.13047 -5.66966,-23.06648 -5.50134,-87.20984 0.2002,-76.29592 3.2907,-98.47294 19.03507,-136.59321 17.91488,-43.37553 28.25537,-60.19081 48.80902,-79.37124 35.3889,-33.02452 70.30759,-53.08208 99.76716,-57.30703 18.70641,-2.68278 126.50492,-6.51575 246.09282,-8.75027 l 83.89721,-1.56763 1.48216,20.99728 c 0.8152,11.54851 2.19673,48.18509 3.07003,81.41462 l 1.58781,60.41733 -18.61355,1.39321 c -10.23745,0.76627 -34.52343,2.0069 -53.96887,2.75695 -19.44543,0.75006 -65.3262,2.91654 -101.95723,4.81442 -77.94886,4.03857 -85.28196,5.77665 -102.63254,24.32583 -18.81112,20.11061 -21.68344,27.98119 -21.5994,59.18547 0.0607,22.55454 0.91855,28.96439 5.10883,38.17519 6.0906,13.38791 22.47818,30.28328 36.41891,37.54737 l 10.24176,5.33668 125.18406,-0.65622 c 110.0876,-0.5771 125.34943,-0.22533 126.55519,2.91681 0.75411,1.96519 2.12446,43.30296 3.04523,91.86173 l 1.6741,88.28867 -29.23434,1.45124 c -44.42769,2.20544 -222.45066,6.16116 -267.50262,5.94396 -25.65366,-0.12374 -45.683,-1.44021 -56.19711,-3.69387 l 0,0 z"
       id="path5377"
       inkscape:connector-curvature="0" />
    <path
       style="fill:#ffffff;fill-opacity:1;fill-rule:evenodd;stroke:none"
       d="m 641.93462,790.45704 c -20.32311,-4.35766 -54.28781,-17.83302 -69.12376,-27.42457 -6.20031,-4.00854 -21.39251,-17.43459 -33.76044,-29.83566 -18.44289,-18.49231 -24.25184,-26.1506 -32.29928,-42.58209 -23.32378,-47.62315 -27.72647,-73.52909 -25.80929,-151.86474 1.94319,-79.39807 7.97825,-105.1207 38.60117,-164.52591 8.52196,-16.53171 14.3635,-24.11435 29.67083,-38.51438 34.10234,-32.08104 70.03069,-52.95241 98.71038,-57.34248 8.23092,-1.25993 52.08842,-3.40908 97.46111,-4.77588 45.37268,-1.36681 97.87536,-3.02223 116.67262,-3.67872 18.79725,-0.65649 52.73838,-1.29592 75.42472,-1.42097 l 41.24789,-0.22735 1.51232,14.95308 c 0.83174,8.2242 2.30083,44.81281 3.26459,81.30804 l 1.75231,66.35496 -17.40676,1.36882 c -9.5737,0.75285 -56.12082,3.00868 -103.43805,5.01296 -129.26301,5.47535 -138.12914,7.05881 -157.56098,28.13986 -17.28353,18.75042 -20.17128,27.04689 -20.16063,57.9214 0.0111,31.88408 3.8005,42.49552 21.49464,60.18966 21.06506,21.06507 11.94053,19.89181 154.70238,19.89181 108.32923,0 126.12741,0.48201 127.265,3.44653 0.7274,1.89562 2.06657,43.14641 2.97593,91.66845 l 1.65338,88.22192 -26.88325,1.43699 c -39.90484,2.13303 -223.56108,6.19357 -269.65657,5.96197 -25.70513,-0.12917 -45.89148,-1.44971 -56.31026,-3.6837 l 0,0 z"
       id="path5379"
       inkscape:connector-curvature="0" />
    <path
       style="fill:#ffffff;fill-opacity:1;fill-rule:evenodd;stroke:none"
       d="m 642.85485,790.64735 c -45.05772,-9.70997 -76.45302,-27.52791 -108.65873,-61.66766 -18.11068,-19.19828 -27.10447,-34.05822 -38.54958,-63.6934 -13.77756,-35.67464 -16.19128,-56.19137 -14.62848,-124.34251 1.88846,-82.35239 7.4572,-106.45157 38.52496,-166.71971 8.52196,-16.53171 14.3635,-24.11435 29.67083,-38.51438 34.1447,-32.12089 70.0963,-53.0725 98.35505,-57.31863 8.42635,-1.26614 51.91342,-3.42616 96.63793,-4.80005 44.7245,-1.37389 95.63619,-3.02986 113.13708,-3.67993 17.50089,-0.65008 51.97235,-1.28002 76.60324,-1.39986 l 44.78342,-0.21791 1.54548,13.76006 c 0.84999,7.56804 2.32221,44.14983 3.27157,81.29288 l 1.7261,67.53281 -17.41371,1.38698 c -9.57753,0.76284 -55.06714,3.01924 -101.08801,5.01423 -86.1129,3.73297 -119.70707,6.37667 -134.74947,10.60414 -12.32556,3.46393 -31.20378,21.38387 -38.72734,36.76147 -5.79981,11.85438 -6.35901,15.39331 -6.2912,39.81378 0.0874,31.47137 3.4392,40.80916 21.06639,58.68892 20.07798,20.36567 9.43487,18.99379 153.1757,19.74407 108.05848,0.56401 127.84427,1.18332 128.93887,4.03579 0.71114,1.85323 2.03706,43.07101 2.94644,91.59505 l 1.65343,88.22553 -24.52628,1.43107 c -36.20208,2.11236 -220.63834,6.19251 -269.65663,5.96541 -26.77944,-0.12405 -48.0767,-1.41419 -57.74706,-3.49815 z"
       id="path5381"
       inkscape:connector-curvature="0" />
    <path
       style="fill:#ffffff;fill-opacity:1;fill-rule:evenodd;stroke:none"
       d="m 369.13453,487.32152 c 25.44598,-67.73494 46.54903,-121.03311 46.89565,-118.44039 0.5964,4.46112 -11.642,78.05899 -31.41767,188.93581 l -8.89493,49.87148 -6.96884,1.39375 c -3.83286,0.76658 -15.72376,1.39378 -26.42424,1.39378 l -19.4554,0 46.26543,-123.15443 z"
       id="path5383"
       inkscape:connector-curvature="0" />
    <path
       style="fill:#ffffff;fill-opacity:1;fill-rule:evenodd;stroke:none"
       d="m 369.13453,487.32152 c 25.44598,-67.73494 46.54903,-121.03311 46.89565,-118.44039 0.5964,4.46112 -11.642,78.05899 -31.41767,188.93581 l -8.89493,49.87148 -6.96884,1.39375 c -3.83286,0.76658 -15.72376,1.39378 -26.42424,1.39378 l -19.4554,0 46.26543,-123.15443 z"
       id="path5385"
       inkscape:connector-curvature="0" />
    <path
       style="fill:#ffffff;fill-opacity:1;fill-rule:evenodd;stroke:none"
       d="m 324.84169,604.25628 c 1.44351,-3.70917 22.17023,-58.65316 46.05938,-122.09775 23.88914,-63.44459 43.93989,-115.85888 44.55721,-116.4762 3.16034,-3.16034 1.15777,9.61642 -23.96014,152.86974 -8.52386,48.61359 -15.98734,88.90437 -16.58551,89.53506 -0.59818,0.63069 -12.69938,1.54416 -26.89156,2.02992 l -25.80396,0.88322 2.62458,-6.74399 0,0 z"
       id="path5387"
       inkscape:connector-curvature="0" />
  </g>
</svg>
