<?xml version="1.0" encoding="UTF-8" standalone="no"?>
<!-- Created with Inkscape (http://www.inkscape.org/) -->

<svg
   xmlns:dc="http://purl.org/dc/elements/1.1/"
   xmlns:cc="http://creativecommons.org/ns#"
   xmlns:rdf="http://www.w3.org/1999/02/22-rdf-syntax-ns#"
   xmlns:svg="http://www.w3.org/2000/svg"
   xmlns="http://www.w3.org/2000/svg"
   xmlns:sodipodi="http://sodipodi.sourceforge.net/DTD/sodipodi-0.dtd"
   xmlns:inkscape="http://www.inkscape.org/namespaces/inkscape"
   width="744.09448819"
   height="1052.3622047"
   id="svg2"
   version="1.1"
   inkscape:version="0.48.5 r10040"
   sodipodi:docname="heartrate.svg">
  <defs
     id="defs4" />
  <sodipodi:namedview
     id="base"
     pagecolor="#ffffff"
     bordercolor="#666666"
     borderopacity="1.0"
     inkscape:pageopacity="0.0"
     inkscape:pageshadow="2"
     inkscape:zoom="1.979899"
     inkscape:cx="367.09513"
     inkscape:cy="629.88286"
     inkscape:document-units="px"
     inkscape:current-layer="layer1"
     showgrid="false"
     inkscape:window-width="1920"
     inkscape:window-height="1014"
     inkscape:window-x="0"
     inkscape:window-y="27"
     inkscape:window-maximized="1" />
  <metadata
     id="metadata7">
    <rdf:RDF>
      <cc:Work
         rdf:about="">
        <dc:format>image/svg+xml</dc:format>
        <dc:type
           rdf:resource="http://purl.org/dc/dcmitype/StillImage" />
        <dc:title></dc:title>
      </cc:Work>
    </rdf:RDF>
  </metadata>
  <g
     inkscape:label="Layer 1"
     inkscape:groupmode="layer"
     id="layer1">
    <path
       style="fill:#ff0000;stroke:#000000;stroke-width:1px;stroke-linecap:butt;stroke-linejoin:miter;stroke-opacity:1"
       d="M 344.81798,649.23741 C 130.32911,504.5694 162.7858,419.89277 161.596,405.24237 c -0.54586,-6.72133 0.7068,-18.53394 8.76115,-30.9159 20.6917,-31.80937 37.11049,-36.94315 53.89708,-39.64271 9.63611,-1.54964 18.89983,-0.4278 28.8125,0.55786 36.93006,3.6721 66.66799,19.22903 79.54531,41.46321 2.39418,4.13382 4.65707,1.84042 5.38872,0.18518 10.41078,-23.55289 48.25534,-38.77425 67.87686,-42.95875 9.22552,-1.96744 21.41954,-3.55091 31.33527,-0.83723 20.04124,5.48479 35.77819,10.3535 52.48253,32.33886 60.64402,79.81644 -29.32208,179.61569 -98.46998,245.81652 -26.79262,25.65072 -42.79475,41.37492 -46.40746,37.988 z"
       id="path2987"
       inkscape:connector-curvature="0"
       sodipodi:nodetypes="cssssssssssc"
       inkscape:export-xdpi="90"
       inkscape:export-ydpi="90" />
  </g>
</svg>
